# xmcd
#
# Track frame offsets:
#	150
#	15153
#	33343
#	52732
#	66638
#	79297
#	93942
#	108778
#	126833
#	142735
#	154945
#	169481
#	184913
#	199558
#	215000
#	231685
#	247835
#	263994
#	278872
#	296379
#
# Disc length: 4153 seconds
#
# Revision: 4
# Processed by: cddbd v1.5.2PL0 Copyright (c) Steve Scherf et al.
# Submitted via: audiograbber 1.83.01
#
DISCID=1d103714
DTITLE=Various Artist - The New Age Of Country Music [Disc 3]
DYEAR=2000
DGENRE=Country
TTITLE0=Brooks and Dunn - Boot Scootin' Boogie
TTITLE1=Clint Black - No Time To Kill
TTITLE2=George Strait - I Can Still Make Cheyenne
TTITLE3=Ricochet - Daddy's Money
TTITLE4=Joe Diffie - If The Devil Danced (In Empty Pockets)
TTITLE5=Lyle Lovett - She's No Lady
TTITLE6=Confederate Railroad - Trashy Women
TTITLE7=Vince Gill - I Still Believe In You
TTITLE8=Tracy Lawrence - Texas Tornado
TTITLE9=Travis Tritt and Marty Stuart - The Whiskey Ain't Workin'
TTITLE10=Troy Cassar-Daley with Slim Dusty - The Biggest Disappointment
TTITLE11=Gina Jeffreys - Dancin' With Elvis
TTITLE12=Colin Buchanan - Edge Of The Kimberley
TTITLE13=Adam Brand - Grandpa's Piano
TTITLE14=Beccy Cole - Big Girls
TTITLE15=James Blundell - Age Of Grace
TTITLE16=Mitchell Shadlow - One Of These Days
TTITLE17=Shanley Del - You Want To See Angels
TTITLE18=John Williamson - This Is Australia Calling
TTITLE19=Anne Kirkpatrick - That's All You Ever Got From Me
EXTD=
EXTT0=
EXTT1=
EXTT2=
EXTT3=
EXTT4=
EXTT5=
EXTT6=
EXTT7=
EXTT8=
EXTT9=
EXTT10=
EXTT11=
EXTT12=
EXTT13=
EXTT14=
EXTT15=
EXTT16=
EXTT17=
EXTT18=
EXTT19=
PLAYORDER=
